REM MD5 448f669b8258e3b3c3bb4098c9d2d321
FILE "Silent Moebius - Case - Titanic (Japan).bin" BINARY
  TRACK 01 MODE2/2352
    INDEX 01 00:00:00
  TRACK 02 AUDIO
    INDEX 00 02:42:21
    INDEX 01 02:44:21
  TRACK 03 AUDIO
    INDEX 00 03:45:21
    INDEX 01 03:47:21
  TRACK 04 AUDIO
    INDEX 00 05:05:09
    INDEX 01 05:07:09
  TRACK 05 AUDIO
    INDEX 00 06:10:26
    INDEX 01 06:12:26
  TRACK 06 AUDIO
    INDEX 00 07:14:59
    INDEX 01 07:16:59
  TRACK 07 AUDIO
    INDEX 00 07:53:31
    INDEX 01 07:55:31
  TRACK 08 AUDIO
    INDEX 00 08:32:27
    INDEX 01 08:34:27
  TRACK 09 AUDIO
    INDEX 00 09:10:11
    INDEX 01 09:12:11
  TRACK 10 AUDIO
    INDEX 00 09:47:13
    INDEX 01 09:49:13
  TRACK 11 AUDIO
    INDEX 00 10:36:28
    INDEX 01 10:38:28
  TRACK 12 AUDIO
    INDEX 00 11:48:18
    INDEX 01 11:50:18
  TRACK 13 AUDIO
    INDEX 00 12:12:18
    INDEX 01 12:14:18
  TRACK 14 AUDIO
    INDEX 00 12:26:43
    INDEX 01 12:28:43
  TRACK 15 AUDIO
    INDEX 00 12:41:23
    INDEX 01 12:43:23
  TRACK 16 AUDIO
    INDEX 00 12:55:29
    INDEX 01 12:57:29
  TRACK 17 AUDIO
    INDEX 00 13:42:36
    INDEX 01 13:44:36
  TRACK 18 AUDIO
    INDEX 00 14:39:70
    INDEX 01 14:41:70
  TRACK 19 AUDIO
    INDEX 00 15:37:57
    INDEX 01 15:39:57
  TRACK 20 AUDIO
    INDEX 00 16:57:59
    INDEX 01 16:59:59
  TRACK 21 AUDIO
    INDEX 00 17:18:34
    INDEX 01 17:20:34
  TRACK 22 AUDIO
    INDEX 00 19:35:41
    INDEX 01 19:37:41
  TRACK 23 AUDIO
    INDEX 00 20:19:40
    INDEX 01 20:21:40
  TRACK 24 AUDIO
    INDEX 00 20:38:53
    INDEX 01 20:40:53
  TRACK 25 AUDIO
    INDEX 00 22:53:70
    INDEX 01 22:55:70
  TRACK 26 AUDIO
    INDEX 00 23:14:58
    INDEX 01 23:16:58
  TRACK 27 AUDIO
    INDEX 00 23:35:61
    INDEX 01 23:37:61
  TRACK 28 AUDIO
    INDEX 00 23:57:10
    INDEX 01 23:59:10
  TRACK 29 AUDIO
    INDEX 00 24:29:67
    INDEX 01 24:31:67
  TRACK 30 AUDIO
    INDEX 00 25:02:06
    INDEX 01 25:04:06
  TRACK 31 AUDIO
    INDEX 00 25:28:13
    INDEX 01 25:30:13
  TRACK 32 AUDIO
    INDEX 00 26:02:45
    INDEX 01 26:04:45
  TRACK 33 AUDIO
    INDEX 00 26:37:33
    INDEX 01 26:39:33
  TRACK 34 AUDIO
    INDEX 00 26:59:46
    INDEX 01 27:01:46
  TRACK 35 AUDIO
    INDEX 00 27:21:10
    INDEX 01 27:23:10
  TRACK 36 AUDIO
    INDEX 00 27:42:01
    INDEX 01 27:44:01
  TRACK 37 AUDIO
    INDEX 00 28:03:15
    INDEX 01 28:05:15
  TRACK 38 AUDIO
    INDEX 00 28:27:19
    INDEX 01 28:29:19
  TRACK 39 AUDIO
    INDEX 00 32:05:00
    INDEX 01 32:07:00
  TRACK 40 AUDIO
    INDEX 00 33:09:65
    INDEX 01 33:11:65
  TRACK 41 AUDIO
    INDEX 00 35:06:48
    INDEX 01 35:08:48
  TRACK 42 AUDIO
    INDEX 00 35:42:15
    INDEX 01 35:44:15
  TRACK 43 AUDIO
    INDEX 00 35:51:34
    INDEX 01 35:53:34
  TRACK 44 AUDIO
    INDEX 00 36:25:13
    INDEX 01 36:27:13
  TRACK 45 AUDIO
    INDEX 00 36:34:55
    INDEX 01 36:36:55
  TRACK 46 AUDIO
    INDEX 00 37:08:55
    INDEX 01 37:10:55
  TRACK 47 AUDIO
    INDEX 00 37:18:03
    INDEX 01 37:20:03
  TRACK 48 AUDIO
    INDEX 00 37:52:24
    INDEX 01 37:54:24
  TRACK 49 AUDIO
    INDEX 00 38:02:07
    INDEX 01 38:04:07
  TRACK 50 AUDIO
    INDEX 00 38:26:24
    INDEX 01 38:28:24
  TRACK 51 AUDIO
    INDEX 00 39:01:05
    INDEX 01 39:03:05
  TRACK 52 AUDIO
    INDEX 00 39:20:28
    INDEX 01 39:22:28
  TRACK 53 AUDIO
    INDEX 00 39:41:61
    INDEX 01 39:43:61
  TRACK 54 AUDIO
    INDEX 00 41:06:01
    INDEX 01 41:08:01
  TRACK 55 AUDIO
    INDEX 00 41:14:03
    INDEX 01 41:16:03
  TRACK 56 AUDIO
    INDEX 00 42:03:49
    INDEX 01 42:05:49
  TRACK 57 AUDIO
    INDEX 00 44:40:43
    INDEX 01 44:42:43
  TRACK 58 AUDIO
    INDEX 00 45:54:52
    INDEX 01 45:56:52
  TRACK 59 AUDIO
    INDEX 00 46:49:34
    INDEX 01 46:51:34
  TRACK 60 AUDIO
    INDEX 00 47:05:32
    INDEX 01 47:07:32
  TRACK 61 AUDIO
    INDEX 00 47:22:73
    INDEX 01 47:24:73
REM LEADOUT 50:40:30
